<svg width="1776" height="1565" viewBox="0 0 1776 1565" fill="none" xmlns="http://www.w3.org/2000/svg">
<g opacity="0.09">
<line y1="1534.12" x2="1511.58" y2="1534.12" stroke="#222020" stroke-width="1.2607"/>
<line y1="888.644" x2="1511.58" y2="888.644" stroke="#222020" stroke-width="1.2607"/>
<line y1="1211.38" x2="1511.58" y2="1211.38" stroke="#222020" stroke-width="1.2607"/>
<line y1="565.906" x2="1511.58" y2="565.906" stroke="#222020" stroke-width="1.2607"/>
<line y1="243.165" x2="1511.58" y2="243.165" stroke="#222020" stroke-width="1.2607"/>
<line y1="1372.75" x2="1511.58" y2="1372.75" stroke="#222020" stroke-width="1.2607"/>
<line y1="727.274" x2="1511.58" y2="727.274" stroke="#222020" stroke-width="1.2607"/>
<line y1="1050.01" x2="1511.58" y2="1050.01" stroke="#222020" stroke-width="1.2607"/>
<line y1="404.536" x2="1511.58" y2="404.536" stroke="#222020" stroke-width="1.2607"/>
<line y1="81.7975" x2="1511.58" y2="81.7975" stroke="#222020" stroke-width="1.2607"/>
<line y1="1453.44" x2="1511.58" y2="1453.44" stroke="#222020" stroke-width="1.2607"/>
<line y1="807.959" x2="1511.58" y2="807.959" stroke="#222020" stroke-width="1.2607"/>
<line y1="1130.7" x2="1511.58" y2="1130.7" stroke="#222020" stroke-width="1.2607"/>
<line y1="485.221" x2="1511.58" y2="485.221" stroke="#222020" stroke-width="1.2607"/>
<line y1="162.483" x2="1511.58" y2="162.483" stroke="#222020" stroke-width="1.2607"/>
<line y1="1292.07" x2="1511.58" y2="1292.07" stroke="#222020" stroke-width="1.2607"/>
<line y1="646.589" x2="1511.58" y2="646.589" stroke="#222020" stroke-width="1.2607"/>
<line y1="969.329" x2="1511.58" y2="969.329" stroke="#222020" stroke-width="1.2607"/>
<line y1="323.851" x2="1511.58" y2="323.851" stroke="#222020" stroke-width="1.2607"/>
<line y1="1.11233" x2="1511.58" y2="1.11233" stroke="#222020" stroke-width="1.2607"/>
<line x1="47.2749" y1="214.801" x2="47.2748" y2="1382.21" stroke="#222020" stroke-width="1.2607"/>
<line x1="692.755" y1="214.801" x2="692.755" y2="1382.21" stroke="#222020" stroke-width="1.2607"/>
<line x1="370.015" y1="214.801" x2="370.015" y2="1382.21" stroke="#222020" stroke-width="1.2607"/>
<line x1="1015.49" y1="214.801" x2="1015.49" y2="1382.21" stroke="#222020" stroke-width="1.2607"/>
<line x1="1338.23" y1="214.801" x2="1338.23" y2="1382.21" stroke="#222020" stroke-width="1.2607"/>
<line x1="208.645" y1="214.801" x2="208.645" y2="1382.21" stroke="#222020" stroke-width="1.2607"/>
<line x1="854.122" y1="214.801" x2="854.122" y2="1382.21" stroke="#222020" stroke-width="1.2607"/>
<line x1="531.385" y1="214.801" x2="531.385" y2="1382.21" stroke="#222020" stroke-width="1.2607"/>
<line x1="1176.86" y1="214.801" x2="1176.86" y2="1382.21" stroke="#222020" stroke-width="1.2607"/>
<line x1="1499.6" y1="214.801" x2="1499.6" y2="1382.21" stroke="#222020" stroke-width="1.2607"/>
<line x1="127.962" y1="214.801" x2="127.962" y2="1382.21" stroke="#222020" stroke-width="1.2607"/>
<line x1="773.439" y1="214.801" x2="773.439" y2="1382.21" stroke="#222020" stroke-width="1.2607"/>
<line x1="450.698" y1="214.801" x2="450.698" y2="1382.21" stroke="#222020" stroke-width="1.2607"/>
<line x1="1096.18" y1="214.801" x2="1096.18" y2="1382.21" stroke="#222020" stroke-width="1.2607"/>
<line x1="1418.91" y1="214.801" x2="1418.91" y2="1382.21" stroke="#222020" stroke-width="1.2607"/>
<line x1="289.332" y1="214.801" x2="289.332" y2="1382.21" stroke="#222020" stroke-width="1.2607"/>
<line x1="934.809" y1="214.801" x2="934.809" y2="1382.21" stroke="#222020" stroke-width="1.2607"/>
<line x1="612.068" y1="214.801" x2="612.068" y2="1382.21" stroke="#222020" stroke-width="1.2607"/>
<line x1="1257.54" y1="214.801" x2="1257.54" y2="1382.21" stroke="#222020" stroke-width="1.2607"/>
<line x1="1580.28" y1="214.801" x2="1580.28" y2="1382.21" stroke="#222020" stroke-width="1.2607"/>
</g>
<g opacity="0.5">
<rect x="845.245" y="979.487" width="80.2262" height="80.2262" fill="#D9AB52" fill-opacity="0.5"/>
<rect x="441.821" y="979.487" width="80.2262" height="80.2262" fill="#D9AB52" fill-opacity="0.2"/>
<rect x="1168.44" y="415.611" width="80.2262" height="79.0801" fill="#D9AB52" fill-opacity="0.25"/>
<rect x="522.049" y="657.385" width="80.2262" height="79.0801" fill="#D9AB52" fill-opacity="0.15"/>
<rect x="1087.07" y="495.837" width="80.2262" height="79.0801" fill="#D9AB52" fill-opacity="0.25"/>
<rect x="441.676" y="415.611" width="80.2262" height="79.0801" fill="#D9AB52" fill-opacity="0.15"/>
<rect x="1087.07" y="415.611" width="80.2262" height="79.0801" fill="#D9AB52" fill-opacity="0.25"/>
<rect x="441.676" y="657.385" width="80.2262" height="79.0801" fill="#D9AB52" fill-opacity="0.15"/>
<rect x="361.596" y="979.487" width="80.2262" height="80.2262" fill="#D9AB52" fill-opacity="0.2"/>
<rect x="361.596" y="1059.71" width="80.2262" height="81.3723" fill="#D9AB52" fill-opacity="0.2"/>
<rect x="199.997" y="899.26" width="80.2262" height="80.2262" fill="#D9AB52" fill-opacity="0.2"/>
<rect x="1006.84" y="254.012" width="80.2262" height="80.2262" fill="#D9AB52" fill-opacity="0.15"/>
<rect x="925.74" y="173.325" width="80.2262" height="79.5062" fill="#D9AB52" fill-opacity="0.15"/>
<rect x="925.74" y="253.583" width="80.2262" height="80.0285" fill="#D9AB52" fill-opacity="0.15"/>
<rect x="199.997" y="333.093" width="81.3723" height="82.5184" fill="#D9AB52" fill-opacity="0.2"/>
<rect x="118.625" y="252.866" width="81.3723" height="80.2262" fill="#D9AB52" fill-opacity="0.2"/>
<rect x="38.3984" y="254.012" width="81.3723" height="80.2262" fill="#D9AB52" fill-opacity="0.2"/>
<rect x="118.625" y="333.093" width="81.3723" height="82.5184" fill="#D9AB52" fill-opacity="0.2"/>
<rect x="441.822" y="172.64" width="81.3723" height="80.2262" fill="#D9AB52" fill-opacity="0.25"/>
<rect x="199.997" y="494.691" width="80.2262" height="81.3723" fill="#D9AB52" fill-opacity="0.2"/>
<rect x="1168.44" y="899.26" width="80.2262" height="80.2262" fill="#D9AB52" fill-opacity="0.15"/>
<rect x="1248.67" y="979.487" width="80.2262" height="80.2262" fill="#D9AB52" fill-opacity="0.15"/>
</g>
</svg>
